<?xml version="1.0" encoding="utf-8"?>
<!-- Generator: Adobe Illustrator 22.0.1, SVG Export Plug-In . SVG Version: 6.00 Build 0)  -->
<svg version="1.1" id="Layer_1" xmlns="http://www.w3.org/2000/svg" xmlns:xlink="http://www.w3.org/1999/xlink" x="0px" y="0px"
	 viewBox="0 0 75 75" style="enable-background:new 0 0 75 75;" xml:space="preserve">
<g id="Braces">
	<path d="M12.7211218,59.6154594c-1.3671875,0-2.4754639,0.3458252-2.4754639,0.7723999s1.1082764,0.7723389,2.4754639,0.7723389
		s2.4754639-0.3457642,2.4754639-0.7723389S14.0883093,59.6154594,12.7211218,59.6154594z"/>
	<path d="M60.1494064,59.6154594c-1.9434814,0-3.5189209,0.4915771-3.5189209,1.0979614
		c0,0.6063232,1.5754395,1.0979004,3.5189209,1.0979004c1.9434204,0,3.5188599-0.4915771,3.5188599-1.0979004
		C63.6682663,60.1070366,62.0928268,59.6154594,60.1494064,59.6154594z"/>
	<path d="M36.1778488,56.4496269c-2.5828857,0-4.6767578,0.6533203-4.6767578,1.4591675
		c0,0.8059082,2.0938721,1.4592285,4.6767578,1.4592285c2.5829468,0,4.6768188-0.6533203,4.6768188-1.4592285
		C40.8546677,57.1029472,38.7607956,56.4496269,36.1778488,56.4496269z"/>
	<path d="M69.5012741,34.3268852l-6.8323364-0.1002808c0.493042-1.5969238,0.796875-3.1241474,0.8987427-4.5667133
		c0.2001419-3.0647106-2.5526009-4.2189846-5.3222656-4.1103516c-1.0693359,0.0322266-2.2880859-0.1142578-3.3583984,0.5756836
		c-0.0010376,0.0006714-0.0014648,0.00177-0.0025024,0.0024414c-2.0293961-1.4539852-3.1913795-2.3637676-7.692749-1.4390259
		c-0.9691162-1.4029541-2.8980713-1.8105469-4.8340454-2.0409546c-0.5263672-0.0688477-1.1425781-0.1049805-1.7138672,0.1459961
		c-1.4677734,0.6855469-2.3291016,3.0703125-2.3876953,4.53125c-0.0117188,0.3530273-0.0439682,0.7026367-0.0761719,1.0517578
		c-0.1994591,2.1601753,0.0641708,2.8930225,0.1364136,5.4928608l-4.9135132-0.0720215
		c0.6870117-3.0675678,0.8713989-5.8549213,0.5446777-8.2982807c-0.4387131-3.3840351-3.3912945-3.6150894-6.7607422-2.9228516
		c-0.8955078,0.1835938-1.9101563,0.3916016-2.6777344,1.1401367c-0.0021362,0.0020752-0.0027466,0.0049438-0.0048218,0.007019
		c-2.34622-1.0551414-3.7171154-1.7309914-8.0559082,0.1139526c-0.0024414-0.0024414-0.0031738-0.0057983-0.0056763-0.0081787
		c-1.2558603-1.2109375-3.2763681-1.2299805-5.274415-1.0688477c-2.9840908,0.2406521-3.4819479,3.5843983-3.1640625,5.5341797
		c0.4059782,2.5320244-0.1767612,0.6713295,1.0308228,5.1455708c-0.0247698-0.0003624,0.3343382,0.0049324-3.4458618-0.050354
		c-0.2724609,0-0.4960938,0.2192383-0.5,0.4926758c-0.0039063,0.2758789,0.2167969,0.503418,0.4931641,0.5073242
		l3.7124634,0.0543823c0.4939203,2.0042343,0.6094084,3.1474648,0.4726563,5.3456421
		c-1.6609497,0.5662231-3.1991577,1.4716187-4.456604,2.6590576c-0.7234983,0.6869164,0.06671,19.4037247,0.0917969,20.6020508
		c0.1141396,2.6014214,2.3637071,1.4171791,27.3251953,1.9540977c26.6727829,0.575943,21.9799614-0.1067352,34.0371094-0.3310547
		l1.4638672-0.0283203c0.6083755-0.0249023,0.6582031-0.0273438,0.6953125-8.0732384
		c0.0080948-1.7777557,0.0366211-13.0685043-0.2773438-14.8476563c-0.0963516-0.4839363-0.3514709-0.6617546-0.7392578-0.7910156
		c-2.1378784-0.746582-4.6063232-1.5547485-7.1320801-2.0246582c0.4857826-1.0320892,0.9864273-2.0378914,1.5675049-3.6870728
		l7.1427002,0.1047974c0.0029297,0,0.0058594,0,0.0078125,0c0.2724609,0,0.4960938-0.2192383,0.5-0.4926758
		C69.9973679,34.5583305,69.7766647,34.3307915,69.5012741,34.3268852z M39.1760788,28.4684849
		c0.0332031-0.3686523,0.0673828-0.7373047,0.0800781-1.1064453c0.0458984-1.1699219,0.7744141-3.1782227,1.8017578-3.6577148
		c0.3349609-0.1489258,0.779274-0.1176758,1.1757813-0.0644531c0.965332,0.1151733,2.8624268,0.3497925,3.8458252,1.296936
		c-0.3020973,0.07267-0.4410515,0.1068172-1.8585205,0.4628296c-0.6411552,0.156208-0.4081383,1.1275616,0.2363281,0.9716797
		c8.0419502-2.03479,7.4309845-0.9560757,11.7255859,1.8930664c0.7208824,0.4782448,1.6045227,0.7556953,2.4365234,0.5185547
		c0.265625-0.074707,0.4208984-0.3510742,0.3457031-0.6171875c-0.0751953-0.2651367-0.3515625-0.4213867-0.6171875-0.3447266
		c-0.8967018,0.252285-1.7711334-0.4920197-2.5424194-1.0424805c0.7254028-0.2844849,1.5924072-0.2055054,2.4750366-0.2294922
		c2.2922401-0.0925274,4.4412918,0.7193069,4.2890625,3.043457c-0.1019897,1.4481201-0.4240723,2.9940815-0.9467163,4.6187763
		l-5.8243408-0.0854492v-3.8883076H44.3405685v3.7203388l-5.0236816-0.0736084
		C39.2521782,31.406683,38.9833908,30.5602589,39.1760788,28.4684849z M53.3167038,31.8196812v4.1364765h-6.4942017v-4.1364765
		H53.3167038z M38.3189621,34.8697929c-0.055912,2.6055794-0.8386421,4.3207016-1.4796753,7.0228271
		c-1.3132935,0.1085205-2.6398315,0.1600342-3.9553833,0.1554565c-0.208271-3.1140862-0.4207001-4.5105972,0.2764282-7.2538452
		L38.3189621,34.8697929z M8.990531,28.1340122c-0.2450333-1.5034485,0.0561581-4.2001305,2.2578125-4.3764648
		c1.0024414-0.081665,2.9796143-0.2293091,4.1629028,0.5423584c-0.3978539,0.1846771-0.7273674,0.3426094-1.798645,0.8546143
		c-0.25,0.1166992-0.3583984,0.4145508-0.2412109,0.6645508c0.1177931,0.251833,0.4178038,0.3572769,0.6650391,0.2407227
		c2.3954535-1.1500378,5.9761209-3.044817,8.3808603-2.1333008c2.9641685,1.1216316,4.6748219,2.5575085,6.3789063,1.6831055
		c0.585104-0.3006783,0.1367798-1.1900883-0.4570313-0.8896484c-0.858139,0.4417095-1.9088097-0.140131-2.7971191-0.5379028
		c0.6999016-0.4587975,1.6217308-0.5601006,2.4650879-0.7599487c2.0102634-0.4941387,4.6208839-0.3294086,4.9492188,2.2075195
		c0.3182373,2.382019,0.1235962,5.1199951-0.5755615,8.152956l-5.6821899-0.083313v-3.4617329H15.6955481v3.3003559
		l-5.6206665-0.0823975C8.744216,28.4371796,9.4138069,30.7291775,8.990531,28.1340122z M24.3097458,31.7576694v3.9710102H18.084343
		v-3.9710102H24.3097458z M15.6955481,34.5380669v2.7107544h11.0030527v-2.5493164l5.4349365,0.0796509
		c-0.5925369,2.264595-0.4870377,4.024147-0.3060913,6.4827881c0.3078842,4.2031136,0.1668243,9.0099449-2.7626953,12.2949219
		c-0.0414715-1.5862427-0.2031021-2.1503639-0.3271484-3.425293c-0.3216362-3.898468-0.3909836-5.9652328-2.4337158-9.3149414
		c0.4390259-0.6961899,1.0670357-0.8008842,1.3829346-0.5952148c0.5501366,0.3636093,1.1028996-0.4744453,0.546875-0.8369141
		c-0.9973221-0.6526222-2.6044579-0.2123375-3.3447266,2.2304688c-0.21768,0.5505981-1.1301498,3.6653824-1.6103516,6.7636719
		c-0.4359283,2.6841812-0.5907116,3.101387-0.703125,3.6542969c-0.2734375,1.2265625-0.5820313,2.6166992-1.2558594,3.5839844
		c-1.6950455-2.1967087-1.3080559-4.1007996-3.5136719-13.7963867c-0.2850113-1.2333298-0.8427563-2.6087456-2.0839853-2.8876953
		c-0.2646484-0.059082-0.5361328,0.1088867-0.5976563,0.3779297c-0.0605469,0.2695313,0.109375,0.5371094,0.3789063,0.5976563
		c0.3644838,0.0822716,0.6210299,0.3750877,0.8102427,0.6954346c-3.463995,5.4803391-1.6989794,8.8027725-3.1110239,12.7015381
		c-1.7783203-2.28125-2.6826172-5.3569336-2.6884766-9.1518555c-0.0139532-3.4482384,0.8139877-5.4855576-0.1860352-9.6941528
		L15.6955481,34.5380669z M67.6731491,41.9562798c0.3152084,1.8184929,0.3268127,18.955471,0.1132813,21.6982422
		l-1.0400391,0.0200195c-11.3613014,0.2102547-7.8057938,0.8939705-33.9960938,0.3310509
		c-19.5932617-0.4238205-22.6900024,0.1689835-25.9023438-0.4838829c-0.4463058-0.0903244-0.4276514-0.1108551-0.4453125-0.5029297
		c-0.033814-1.558712-0.655539-15.704319-0.2685547-19.9697266c1.0239258-0.9335938,2.2433472-1.6634521,3.5557251-2.1668091
		c-0.0882902,1.1121521-0.1799507,2.2158813-0.1758423,3.274231c0.0068359,4.2333984,1.0869141,7.6464844,3.2089844,10.1430664
		c0.3814106,0.45644,0.9848928,0.3994827,1.2568359-0.234375c1.280304-2.9775162,0.5513344-6.2720947,1.5941772-9.5664063
		c0.240612-0.387722,0.3396444-0.5801735,0.4232788-0.6519775c0.15973-0.1370239,0.4234629-0.055481,0.5543833,0.109314
		c0.2834568,0.3570976,0.171545,1.5097046,1.3383789,3.0758667c0.9169388,4.6269073,1.021492,7.1839294,2.7235718,9.3037109
		c0.5120144,0.5909958,1.0774021,0.4648781,1.5097656-0.1235352c1.8543243-2.6433792,2.3891602-11.4231529,3.2749634-12.3984375
		c0.1677856-0.1848145,0.4654541-0.2775269,0.6725464-0.1381836c0.1306133,0.0878601,0.1117878,0.0905762,1.0889282,1.7033691
		c0.3200111,1.368557,0.4191723,2.8727989,0.5817261,4.845459c0.2019844,2.0464363,0.1305923,0.2980042,0.3398438,3.7070313
		c0.0627499,0.9436722,0.8721867,1.2471161,1.6425781,0.387207c2.6852722-2.9272156,3.3893127-7.3072548,3.2197266-11.2607422
		c1.2331543,0.0082397,2.4539185-0.052124,3.6712646-0.1461792c-0.7672729,3.9562378-0.3893433,7.3670044,1.1676025,10.1837769
		c0.2915688,0.4531517,0.816124,0.5163612,1.2402344-0.0297852c1.8887367-2.7316208,1.7186165-6.2300835,3.6328125-9.3066406
		c0.0103874-0.0169678,0.0085754-0.0123062,0.0498047-0.0911865c1.1729202,0.2444,0.8306046,2.939785,1.352356,4.8735352
		c-0.0153999,2.8851509-0.3672485,5.6360092,0.8370972,7.9749756c0.3315506,0.5962982,0.9153633,0.6797943,1.4785156,0.1625977
		c1.8737984-1.7986259,3.1351891-6.3310699,4.7402954-9.8430786c0.4103088,1.0799141,1.5162239,1.4258461,1.8369141,2.3330688
		c0.2133255,0.6034241,0.1027145,1.1312065-0.0899048,2.8693848c-0.0745506,0.7248001-0.1159401,1.452137-0.1767578,2.1503906
		c-0.0406761,0.4915047-0.1539917,0.9645996-0.2138672,1.4516602c-0.1180801,0.8651619,0.5381622,1.4127121,1.5126953,0.6992188
		c3.1240234-2.2758789,4.4736328-6.190918,5.0566406-9.0732422c0.5063324-2.4807739,0.5085793-5.0374565,1.3521729-7.4147339
		c2.5269775,0.4495239,5.0274048,1.2721558,7.208374,2.0338745C67.6340866,41.8971977,67.671196,41.9054985,67.6731491,41.9562798z
		 M59.5940475,39.0900688c-1.0334091,2.5925484-0.9975586,5.3383064-1.5351563,7.9770508
		c-0.5400391,2.6733398-1.7666016,6.2788086-4.5498047,8.3793945c0.0585709-0.3723373,0.1365166-0.7546234,0.1708984-1.1738281
		c0.4774132-5.4994469,1.1148415-7.4219818-0.3474731-11.4758301c0.5308571-0.5693817,1.1533012-0.541893,1.4031372-0.298584
		c0.4772072,0.4620018,1.1702347-0.2552986,0.6992188-0.7158203c-0.65625-0.6396484-1.6738281-0.5307617-2.3398438-0.0922852
		c-2.5102539,1.6349792-5.0938263,11.9968605-7.3798828,14.2333984c-1.1639862-2.3970184-0.4793243-4.0175438-0.6904297-13.8466797
		c-0.0517998-1.2408257-0.2963104-2.6085815-1.4296875-3.1220703c-0.2490234-0.1132813-0.5478516-0.0029297-0.6611328,0.2495117
		c-0.1142578,0.2514648-0.0029297,0.5478516,0.2490234,0.6616211c0.2816772,0.1276855,0.4815063,0.3917236,0.6221924,0.7913818
		c-4.3754883,4.5782928-3.2879753,8.0362396-5.3907471,11.4996338c-1.2490234-2.5214844-1.5146484-5.6206055-0.7841797-9.2524414
		c0.5540619-2.8010979,1.6217003-4.8751907,1.6887207-8.0200195l5.0216675,0.0736084v2.5906372h11.4580078v-2.4227295
		l5.4828491,0.0805054C60.5275078,37.2655563,60.1087761,37.9106636,59.5940475,39.0900688z"/>
	<path d="M38.148735,19.8805943c0.4086227,0,0.6500854-0.4716148,0.3984375-0.8027344l-2.4482422-3.2202148
		c-0.1679688-0.2211914-0.4804688-0.2626953-0.7011719-0.0957031c-0.2197266,0.1669922-0.2626953,0.4804688-0.0957031,0.7001953
		C37.7675858,19.5880299,37.6998253,19.8805943,38.148735,19.8805943z"/>
	<path d="M41.63311,17.3571568l-0.2685547-7.109375c-0.0260353-0.6674423-1.0232773-0.6195192-1,0.0380859l0.2685547,7.1083984
		C40.6596909,18.0611954,41.6565628,18.0196819,41.63311,17.3571568z"/>
	<path d="M43.7190475,18.4841099c0.1767578,0,0.3476563-0.0942383,0.4384766-0.2602539l2.1533203-3.940918
		c0.1328125-0.2421875,0.0439453-0.5458984-0.1982422-0.6787109c-0.2421875-0.1318359-0.5458984-0.0429688-0.6787109,0.1992188
		l-2.1533203,3.940918C43.0975342,18.0781326,43.3409271,18.4841099,43.7190475,18.4841099z"/>
</g>
</svg>
