<?xml version="1.0" encoding="utf-8"?>
<!-- Generator: Adobe Illustrator 22.0.1, SVG Export Plug-In . SVG Version: 6.00 Build 0)  -->
<svg version="1.1" id="Layer_1" xmlns="http://www.w3.org/2000/svg" xmlns:xlink="http://www.w3.org/1999/xlink" x="0px" y="0px"
	 viewBox="0 0 75 75" style="enable-background:new 0 0 75 75;" xml:space="preserve">
<g id="Dentist_Chair">
	<path d="M21.6235943,17.8231602c-1.0204182-2.0936003-1.7266617-3.348424-3.6529541-5.8320313
		c-0.8993568-1.1470404-2.3102341-0.5513611-3.3691406-0.3769531c-1.6384411,0.3310375-4.4184923,1.0278597-5.9609375,1.671875
		c-1.1987324,0.5384111-1.2778239,1.4248343-1.7026362,2.3212891c-0.0625,0.1328125-0.0639648,0.2861328-0.003418,0.4199219
		l3.1962886,7.0791016c0.1362305,0.2617188,0.4389648,0.5800781,1.112793,0.6074219
		c0.5306549,0.0196533,1.0483885-0.1561031,1.5346069-0.3309326c-0.1661921,0.3219185-0.1383667,0.1828499,0.777771,1.8932495
		c-1.5425262,0.3874874-1.7001562,0.3658905-1.8024292,0.7199707c-0.4601383,0.3666-0.7908373,0.7824116-0.9503784,0.9569702
		c-0.2084961,0.2441406-0.3466797,0.4501953-0.234375,0.8808594c0.0282927,0.1191597,7.3847561,16.6752224,7.6274414,17.227541
		c0.1884766,0.4208984,0.5932617,0.6757813,1.0351563,0.6757813c0.3058052,0,0.2802944-0.0520287,2.8805542-0.8131104
		c0.2194595,0.5107117,0.4843235,1.1323166,0.8624268,2.0195313l-2.7044067,0.7496338
		c-0.2167263,0.0591507-0.3960133,0.2665215-0.3551636,0.5509033c-0.0346069,0.1003342-0.012867,4.0492516-0.0115356,4.149292
		c0,0.2431641,0.1748047,0.4511719,0.4140625,0.4921875l5.5961914,0.9779053v8.7730103
		c-0.8418579,0.1386108-1.5565186,0.2870483-2.1577759,0.4539185c-0.0014648,0.0003662-0.0028687-0.0001221-0.0043335,0.0002441
		c-2.0712891,0.5722656-3.1210938,1.3339806-3.1210938,2.2646446c0,0.0427856,0.0028687,0.1060791,0.0112305,0.1688843
		l0.0708008,1.3359985c0,2.296875,6.550293,3.1308594,10.953125,3.1308594s10.9536152-0.8339844,10.9536152-3.1308594
		c0-0.0087891-0.0004883-0.0185547-0.0009766-0.0273438l-0.0820313-1.5058594
		c-0.0004272-0.0080566-0.0046997-0.0144043-0.0054932-0.0223389c-0.0337524-0.8099365-0.861084-1.4898033-2.4708252-2.0192223
		c-0.0015869-0.0005493-0.0025635-0.0018311-0.0041504-0.0023804c-0.7211304-0.2399292-1.6411743-0.451355-2.7197266-0.6331787
		v-5.6466675l15.0698242,9.6235924c0.1396446,0.0886383,0.3116684,0.1016464,0.4609375,0.0400391l10.3100586-4.2900352
		c0.1601563-0.0673828,0.2744141-0.2119141,0.3017578-0.3828125c0.0079384-0.0498199,0.4682159-2.9356575,0.4744263-2.9857178
		c0.2160034-0.239193,0.1535416-0.5473747-0.0437622-0.7125244l-10.1713867-8.4761353v-6.274231l4.1401367,0.8499756
		c0.639534,0.1297607,0.6452217-0.0673714,10.0068359-6.4345703c0.3816528-0.2626457,0.1461487-0.5014038,0.2177734-3.4443359
		c0-0.3537407-0.3704758-0.6216736-0.7241821-0.4408569l-4.6000977-0.7011108
		c-0.0180359-10.1471672,0.0479813-9.3179398-0.0687866-9.7916279c-0.0382729-0.2342625-0.2149124-0.4308548-0.496582-0.4746094
		c-0.6077843-0.0956535-11.5690956-0.0774326-11.8227539-0.0346069c0-6.5370445-0.0021782-13.7746038,0-13.628479
		c-0.015625-1.0488281-0.5380859-1.3066406-1.315918-1.3710938c-0.1057701-0.0093479-6.3610916,0.007266-6.4797974,0.0087891
		l-0.4552612-2.3886719c-0.0419922-0.2207031-0.2265625-0.3867188-0.4511719-0.4042969
		c-4.2921448-0.3469033-9.7203846-0.4016614-14.5688496,0c-0.0948868,0.0077872-0.2732601,0.102972-0.3232422,0.15625
		c-1.1469727,1.2236328-1.2216797,1.4365234-1.2539063,1.5283203c-0.0288086,0.0830078-0.0356445,0.171875-0.019043,0.2587891
		l1.996582,10.4628906c0.0454102,0.2373047,0.2529297,0.40625,0.4907227,0.40625
		c0.0136719,0,0.0268555-0.0009766,0.0405273-0.0019531c4.7802753-0.3847656,9.626955-0.3847656,14.4072285,0
		c0.159668,0.0117188,0.3173828-0.0517578,0.4213867-0.1748047l1.1464844-1.3505859
		c0.0695305-0.0815849,0.133255-0.2947788,0.1098633-0.4169922l-0.6137085-3.2158203
		c0.4372559-0.0037298,2.1238441,0.0167379,2.2357788-0.0380859c0.0504723,0.1009483,0.0497627-1.2919273,0.0283813,22.8933735
		c-0.1038284,0.103138-0.3052444,0.1409492-0.4448853,0.4874878l-1.8427734,4.5556641
		c-0.118042,0.291996,0.0605621,0.6158981,0.3618164,0.6767578l1.9257813,0.3953857V45.88731
		c-12.058815-2.1361351-11.4564133-2.0904999-11.6630859-2.0338745l-1.9227295,0.532959l-1.1779804-2.1337891l3.321413-0.9958496
		c0.3696289-0.1240234,0.6542969-0.421875,0.769043-0.8261719c0.0913696-0.4102325,0.2087975-0.7204056,0.2078857-1.0576172
		c0.3297386-0.4696045,0.6310387,0.5967941-9.8416767-16.76758c-0.1132813-0.1875-0.3359375-0.2802734-0.5507813-0.2246094
		l-3.8242798,0.9736328c-0.2741604-0.4858761-1.0377941-1.8644333-1.1240845-1.9890747
		c0.8922215-0.2843857,1.1809998-0.7056351,1.5430908-1.4259644c0.1921253-0.3842487,0.3946037-0.6616459,0.4138184-1.0415039
		C22.0138855,18.6543694,21.7429886,18.0681229,21.6235943,17.8231602z M15.3768902,12.4696445
		c0.8676758-0.203125,1.4619141-0.3007813,1.8051758,0.1357422c1.3770752,1.782423,2.7686806,3.8124409,3.6325684,5.8721313
		c-1.2705135,0.5282383-8.7882547,2.1831036-8.8933105,2.2069702c-3.7225056-8.2963753-2.5223322-5.4506807-2.9460449-6.4512939
		C10.5247345,13.4911366,15.1733837,12.5168629,15.3768902,12.4696445z M41.5369263,65.3548355
		c-0.0013428,0.7237549-3.5140991,2.1314087-9.953249,2.1314087c-5.899353,0-9.7731934-1.2226563-9.9533691-2.1308594
		c0-0.2216797,0.4990234-0.7792969,2.3867188-1.2998047c0.0012817-0.0003662,0.0020752-0.0013428,0.0033569-0.001709
		c0.5307617-0.1466637,1.1591797-0.2799034,1.897644-0.4052696c0.0064087,0.2104492,0.1400146,0.3968468,0.3411865,0.4616661
		c1.7802734,0.5771484,3.5727539,0.8662109,5.3657227,0.8662109c1.7924824,0,3.5849628-0.2890625,5.3652363-0.8662109
		c0.1963501-0.0632935,0.3243408-0.2436485,0.336731-0.4478722c0.958252,0.1669312,1.7738037,0.3574181,2.4122925,0.5699425
		c0.0014648,0.0004883,0.0029297,0.0002441,0.0043945,0.0007324C41.1575928,64.6982803,41.5363159,65.1565323,41.5369263,65.3548355
		z M36.3358765,63.267498c-3.128418,0.9443321-6.2949238,0.942379-9.4223652,0v-9.229187l7.9565449,1.3903198l1.4658203,0.9360962
		V63.267498z M52.5140991,62.9032402C52.3283577,62.7770576,36.0014,51.6856499,36.1190186,51.7651787l13.4469604-4.1176758
		c2.9167747,2.4300232,9.7517471,8.1243782,13.0789795,10.8963623L52.5140991,62.9032402z M52.7377319,48.9863091
		l-2.3476563-1.9563599v-4.171814l2.3476563,0.4819946V48.9863091z M58.8766479,42.8840141l1.2720337-3.541626
		c5.6526184-3.2834282,7.0801468-4.1125526,6.9537964-4.0391235v1.9798584
		C64.840477,38.8232689,60.8074913,41.5673714,58.8766479,42.8840141z M53.7416382,27.6307774
		c0.0670395-0.0085945,3.6006279,0.0325012,4.7402344,0.0107422v5.078249l-4.7443848-0.7230854
		C53.7471199,26.0407429,53.755619,28.0502586,53.7416382,27.6307774z M53.6630249,35.2665215l9.3816528,1.2347412
		l-2.9684448,1.7282715c-0.1036453-0.0501213-9.3702812-1.552372-9.47229-1.5684814L53.6630249,35.2665215z M50.4071655,24.0946445
		c0.1931381-0.0965691,11.270649-0.0448456,11.3725586-0.0351563c0.0361404,0.891552,0.0025215-3.2577171-0.0014648,9.1626606
		l-2.2960205-0.3499146c0.0000839-0.0769844,0.0042076-5.7399063-0.0018311-5.8166523
		c-0.0242577-0.3176212-0.3762703-0.5433655-0.6728516-0.4306641c-0.3544006,0.0335751-2.7745399,0.0159798-4.4638672,0.0205078
		c-0.5179176,0-1.1458054-0.1410446-1.4814453,0.4912109c-0.1426773,0.2873611-0.1503792,0.1783886-0.1246948,5.000246
		l-2.3474731,1.2362061C50.3903198,33.2687569,50.4080887,23.9935837,50.4071655,24.0946445z M41.5761719,8.0829258h-2.8317261
		c-0.317627-0.1530151-0.6669312-0.2442627-1.0372314-0.2654419c-0.0900269-0.5974731-0.1862793-1.2116699-0.2746582-1.7653198
		c1.2640381,0.0435791,2.5296021,0.1072998,3.7954102,0.2045898L41.5761719,8.0829258z M34.8462524,11.1625767
		c0.2509155,1.1497192,1.2184448,2.0223999,2.4083252,2.151123l0.1819458,2.1641235
		c-3.0148926-0.0337734-5.5343933,0.0638657-7.8721333,0.2408447l-0.8305054-4.3530273L34.8462524,11.1625767z
		 M36.4160156,6.0317783c0.104126,0.6520386,0.2058105,1.3070068,0.2971802,1.9133301
		c-0.9899292,0.3168945-1.734314,1.1671753-1.8920288,2.2174683c-0.1051979,0.003562-6.6873837,0.2267666-6.276247,0.2128906
		l-0.7885742-4.1333618C30.6076641,6.0241489,33.505249,5.9645176,36.4160156,6.0317783z M43.0307007,15.703043
		c-0.2830124-0.0208483-2.6270218-0.1614294-4.5893555-0.2054443L38.25177,13.2426548
		c0.2543945-0.0670166,0.4931641-0.1682129,0.713562-0.300354h3.5383911L43.0307007,15.703043z M46.7846069,12.9579258
		c-0.0661964-0.8765001-0.656395-1.0633135-1.4472656-1.0234375c-0.3009567,0.0147715-0.3677979,0.004118-5.3926392,0.0078125
		c0.5408936-0.9414663,0.4827423-2.006032-0.0651245-2.859375c12.8826866-0.0149298,8.0203133-0.1072636,9.1091309-0.0126953
		c0.28125,0.0234375,0.3486328,0.0576172,0.355957,0.0615234c0.0587425,21.651207,0.0454102-22.4130821,0.0454102,24.7679462
		l-2.6040039,1.3713379C46.7861061,35.1604614,46.7896576,13.0738268,46.7846069,12.9579258z M46.1913452,36.8495903
		c16.4348946,3.0805016,10.6139679,1.9894905,12.9238281,2.4223022l-1.4609375,4.0561523l-13.0039063-2.6679688
		L46.1913452,36.8495903z M46.7860718,42.1219902l2.6040039,0.5332031v3.8758545l-2.6040039-0.4651489V42.1219902z
		 M34.2792358,44.8475761c1.3568153,0.2424164-4.9151421-0.8781738,13.2696533,2.3708496l-12.291626,3.763916
		c-0.1916504,0.0587769-0.3191528,0.2233276-0.3455811,0.4094238c-12.8100262-3.296402-12.4677105-3.208313-12.5699482-3.2346191
		C38.7609901,43.6050453,33.0181198,45.1972084,34.2792358,44.8475761z M31.2103252,44.6607475l-6.2305298,1.7270508
		c-1.1599903-2.7008705-0.8194427-1.9082718-0.8841553-2.0584106l5.9472046-1.7831421L31.2103252,44.6607475z
		 M34.1571655,38.7997246L20.291441,42.9022636l-7.3686523-16.4315815
		c14.8613777-3.7852802,11.3430996-2.8891544,11.8935547-3.0293579L34.1571655,38.7997246z M20.1010723,23.6097202
		l-4.8757935,1.241394c-0.1978617-0.3762779-0.4692984-0.8857307-0.6721191-1.2593994l4.7783203-1.3544922L20.1010723,23.6097202z"
		/>
	<path d="M58.2050171,19.1473789c0.2734375-0.0380859,0.4643555-0.2900391,0.4262695-0.5634766l-0.5239258-3.7783203
		c-0.0380859-0.2744141-0.2895508-0.4648438-0.5639648-0.4267578c-0.2734375,0.0380859-0.4643555,0.2900391-0.4262695,0.5634766
		l0.5239258,3.7783203C57.6770973,18.9815922,57.913578,19.1838093,58.2050171,19.1473789z"/>
	<path d="M64.809021,11.9735508c-0.2456055-0.1269531-0.546875-0.0292969-0.6733398,0.2158203l-3.0649414,5.9667969
		c-0.1259766,0.2460938-0.0292969,0.546875,0.2163086,0.6728516c0.2408752,0.1252556,0.5453033,0.0332165,0.6733398-0.2158203
		l3.0649414-5.9667969C65.1513062,12.4003086,65.0546265,12.0995274,64.809021,11.9735508z"/>
	<path d="M63.3602905,20.5790195c0.2638855,0,0.0916176-0.0007915,3.8554688-2.3193359
		c0.2338867-0.1464844,0.3051758-0.4550781,0.1586914-0.6884766c-0.1459961-0.2353516-0.4545898-0.3066406-0.6889648-0.1591797
		l-3.5908203,2.2431641C62.6696281,19.9213943,62.8603096,20.5790195,63.3602905,20.5790195z"/>
	<path d="M20.2494488,35.133709c0.1645508,0,0.3256836-0.0810547,0.4213867-0.2294922
		c1.1904297-1.8535156,2.6313477-3.5322285,4.2827148-4.9892597c0.2070313-0.1826172,0.2265625-0.4990234,0.0439453-0.7060547
		c-0.1831055-0.2060547-0.4990234-0.2265625-0.7060547-0.0439453c-1.7202148,1.5185547-3.2216797,3.26758-4.4624023,5.1982441
		C19.6145134,34.697998,19.8587074,35.133709,20.2494488,35.133709z"/>
	<path d="M23.4257183,34.3876152c-0.1897335,0.3345833,0.0555153,0.7460938,0.4345703,0.7460938
		c0.5940514,0,0.3839588-0.7004662,1.8579102-2.0224609c0.2055664-0.1845703,0.2226563-0.5,0.0380859-0.7060547
		c-0.1855469-0.2070313-0.5014648-0.2236328-0.7060547-0.0380859
		C24.4013042,32.9491386,23.8544292,33.6288261,23.4257183,34.3876152z"/>
</g>
</svg>
