<?xml version="1.0" encoding="utf-8"?>
<!-- Generator: Adobe Illustrator 22.0.1, SVG Export Plug-In . SVG Version: 6.00 Build 0)  -->
<svg version="1.1" id="Layer_1" xmlns="http://www.w3.org/2000/svg" xmlns:xlink="http://www.w3.org/1999/xlink" x="0px" y="0px"
	 viewBox="0 0 75 75" style="enable-background:new 0 0 75 75;" xml:space="preserve">
<g id="Healthy_Tooth">
	<path d="M6.0312605,67.2389069c0,0.8257446,10.493041,1.5004272,23.4331665,1.5004272
		c2.2481689,0,4.4066181-0.0197754,6.4661274-0.0608521c0.0747337,0.1005859,0.2777061,0.3979797,0.4610596,0.6029053
		c0.5888443,0.7082596,1.2982826,0.58255,1.8662109-0.1660156c0.1415482-0.2020264,0.2548218-0.3914032,0.3205566-0.4937134
		c8.416626-0.2310181,14.3294678-0.7632446,14.3294678-1.3827515c0-0.2840576-1.227478-0.5427246-3.3359375-0.769165
		c3.8131714-3.9365845,4.6322632-9.5519409,4.6409912-13.5882568c0.0210915-4.1793251-1.010025-8.1730957,0.1416016-12.1381836
		c0.2467651-0.8474121,0.4591064-1.6807861,0.6464233-2.5007324c0.7884674-0.3767738,0.7490845-0.9076538,1.7345581-2.5859375
		c0.0219727-0.0183716,0.0512695-0.0294189,0.0692139-0.0510254c2.6435547-2.7735596,5.748291-5.1781635,9.2370567-7.1805439
		c0.9809647,0.6808949,2.2355423,0.2850189,2.7252808-0.6820679c0.4655762-0.9192505,0.0977783-2.0418701-0.8215332-2.5074463
		c-1.080368-0.5471058-2.4533768,0.0600433-2.673645,1.3522949c-1.3187218,0.1659546-2.5297203,0.1755981-3.610775,0.0125122
		c-0.1499023-1.97052,0.0911255-3.7791138,0.730957-5.3986816c0.9625854,0.1989136,1.9761925-0.2498779,2.4415245-1.1688232
		c0.5570068-1.0998535,0.1169434-2.4429932-0.9828453-2.999939c-1.6876717-0.8547001-3.6134109,0.6466198-3.1704712,2.5053101
		c-1.5450439,0.5837402-3.4173584,0.9000244-5.5935059,0.9436035c-0.6356201-2.0351563-0.9282837-4.621582-0.8721313-7.6998291
		c1.1549072,0.0952759,2.302002-0.5009155,2.8520508-1.5935059c0.7351074-1.4400024,0.1611938-3.2124023-1.2890015-3.937439
		c-2.7127228-1.3848767-5.5434761,1.8636417-3.6538086,4.3729858c-2.0923157,1.7046976-4.5183029,3.3660231-7.1104736,4.1973267
		c-0.8791962-1.8506594-1.6896477-2.5331182-2.6807251-6.3410034c1.663681-0.8122149,1.6663094-3.1609101,0.0308838-3.9891968
		c-1.0998535-0.5570068-2.4429932-0.1169434-2.999939,0.9829102c-0.539856,1.065918-0.1372681,2.3540039,0.8889771,2.9398193
		c-1.0101929,1.8241577-2.2996826,3.2597656-3.8535156,4.2844238c-0.914856-0.9762573-1.7562256-2.2363892-2.5154419-3.7640991
		c0.8302116-0.947669,0.500824-2.3549919-0.555542-2.8900146c-0.9192505-0.4655151-2.041872-0.0977173-2.5074482,0.8215332
		c-0.5242443,1.0352945,0.0121231,2.3134871,1.1593018,2.6377563c0.498415,4.6928711,0.4505024,8.682312-0.1466675,12.1157227
		c-0.0506592,0.0424194-0.0948486,0.0934448-0.1262207,0.1558228c-1.0615578,2.1659718-1.0951824,2.043705-1.1860962,2.5048218
		c-0.156311,0.0595093-0.3084717,0.1175537-0.4627686,0.1784668c-0.0266724-0.0478516-0.0569458-0.0946045-0.1001587-0.1329956
		c-1.8066406-1.6000977-4.8466797-1.6025391-7.5771484-1.3935547c-4.1048832,0.2819138-4.9494095,4.5497627-4.4550781,7.3110352
		c0.4132729,2.3959942-0.0406971,1.7483196,1.2001953,5.9458027c2.6029434,8.7874298,0.9795475,9.5330467,0.9970703,15.6401367
		c0,5.3106689,1.3658447,9.6586914,4.0369263,12.9499512C13.7801619,65.9347076,6.0312605,66.5281525,6.0312605,67.2389069z
		 M26.4257908,65.7555695c2.2412415-5.5149727-0.3337307-9.707386,4.2208862-16.6743774
		c0.6695595,1.9664345,2.455328,10.6548462,3.0584126,13.8862305c0.1903687,1.055603,0.4377441,1.9713745,0.7406616,2.8051758
		C31.3567314,65.7268143,28.9007225,65.7348404,26.4257908,65.7555695z M43.8576775,49.3913727
		c2.9511871,4.7123566,2.8912468,8.0294418,3.6240234,16.8911133c-2.1014404-0.1627808-4.72229-0.2940674-7.7041016-0.3867798
		C41.2990112,60.9458046,41.4932785,55.713623,43.8576775,49.3913727z M56.4230461,34.9292755
		c-0.0106201-0.0027466-0.0186157-0.0111084-0.02948-0.0131226c-8.8378906-1.65625-16.8212891-5.689455-23.7480736-12.0048847
		c-0.0105934-0.0581055-0.0431252-0.1079102-0.0729103-0.1583862c0.1426392-0.8204956,0.2559814-1.670166,0.3375244-2.5531616
		c5.6730347,5.2687988,17.1812134,11.6085815,25.5610352,12.7608662
		C57.7640495,33.5952911,57.0788689,34.2497711,56.4230461,34.9292755z M61.6999016,20.9301891
		c-0.6587524,1.6664429-0.9266968,3.5148926-0.7996216,5.5227661c-2.6567993-0.6262207-4.4795532-2.3430176-5.5512695-5.2285767
		c2.1698608-0.0646362,4.0531616-0.3974609,5.6246948-0.9950562C61.1539421,20.5094738,61.3982658,20.749403,61.6999016,20.9301891z
		 M54.3780632,10.5943127c0.8266335,0,1.3148193-0.9312019,0.8759766-1.6112061
		c-0.2695389-0.4413986,0.3728065-0.8167801,0.6345215-0.4129028c0.768425,1.1857738-0.0951958,2.7793579-1.510498,2.7793579
		c-0.2114258,0-0.3727417-0.1711426-0.3727417-0.3725586C53.9952507,10.7655773,54.1666374,10.5943127,54.3780632,10.5943127z
		 M52.643261,12.1673717c0.3706894,0.2904215,0.5908546,0.3564768,0.8238525,0.4405518
		c-0.2043457,9.2939243,2.6396675,15.8805275,11.8350182,14.7509766c0.0473633,0.1853638,0.1209717,0.3616943,0.2225952,0.5249634
		c-2.338131,1.3549805-4.5124474,2.8792114-6.487606,4.586916c-0.0511475-0.116333-0.1544189-0.2068481-0.2900391-0.2245483
		c-8.4685059-1.095644-20.3158569-7.7048359-25.7657471-13.0032978c0.1722412-2.6085815,0.0951538-5.4869385-0.2391357-8.6884766
		c0.1835938-0.0257568,0.3597412-0.0838013,0.5275269-0.1618042C37.8426361,19.4956799,44.8559647,18.5303173,52.643261,12.1673717z
		 M40.9737053,9.6715832c0.2155151,0.0374756,0.4321899,0.052002,0.6447754,0.0265503
		c0.9988747,3.8209572,1.8261757,4.6258421,2.661499,6.3289185c-2.8529053,0.7178955-5.2619629,0.1295166-7.331665-1.7937012
		C38.5733147,13.1297741,39.9251823,11.6023083,40.9737053,9.6715832z M19.4843845,34.8228912
		c-0.3298092-1.2085114-0.3521862-2.4835968-0.5742188-3.7534199c-0.3420773-1.915638,0.0039959-5.89748,3.5429688-6.1401367
		c1.5789185-0.1209106,4.7684937-0.3461304,6.5645752,0.954895c-1.1022015,0.4640636-1.727972,0.7464943-2.9434814,1.2799683
		c-0.4972744,0.215168-0.3413124,0.9589844,0.1982422,0.9589844c0.2517948,0,2.1086311-0.947361,4.3890991-1.8312378
		c0.0975342,0.197937,0.2218628,0.385437,0.3989868,0.5407104c6.3496113,5.5039082,14.0224628,9.3857441,22.8125019,11.5390644
		c0.0224342,0.005188,0.0447388,0.003418,0.0671387,0.0076904c-0.1633301,0.6856689-0.3410034,1.3789673-0.5466309,2.0845947
		c-1.209156,4.1687851-0.1594086,8.3265877-0.1806641,12.4140625c-0.0078125,3.8891602-0.7880859,9.3017578-4.4619141,13.0073242
		c-0.0868835,0.0868835-0.1710358,0.166832-0.2832031,0.2397461c-0.7259331-9.3782921-0.8495178-12.9380646-4.0906372-17.8044434
		c0.1351929-0.2102051,0.2838135-0.4099121,0.4675903-0.579834c0.4960938-0.449707,1.3896484-0.7182617,1.9746094-0.3652344
		c0.5627899,0.3423653,1.0844383-0.513279,0.515625-0.8564453c-1.1299019-0.6818008-3.0451889-0.2553444-3.9890137,1.5814209
		c-0.9801903,1.8072014-2.3733406,7.1883965-2.9553223,10.5250244c-0.2685547,1.5800781-0.5595703,3.0117188-0.8886719,4.3740234
		c-0.5327568,2.152092-0.8517113,3.7993851-2.0664063,5.5473633c-0.1044922,0.137207-0.1816406,0.1894531-0.1621094,0.2075195
		c-0.0757675-0.0479889-0.2895508-0.3275452-0.3417969-0.4008789c-2.3460732-2.8865891-1.9527245-5.9348907-5.0595722-18.6494141
		c-0.4281063-1.6883163-1.1685352-3.4102821-2.8759766-3.7792969c-0.2626953-0.0585938-0.5361328,0.1132813-0.59375,0.3833008
		c-0.0585938,0.2695313,0.1123047,0.5356445,0.3828125,0.5942383c0.56073,0.1210327,1.0084229,0.4962158,1.3762207,1.1157227
		c-5.1831303,7.4664764-2.4827766,12.32621-4.7365723,17.5561523l-0.0498047,0.1162109
		c-2.5227509-2.8636665-4.2519531-6.9230385-4.2519531-12.8632813
		C21.101738,45.6348267,22.9972134,47.7093277,19.4843845,34.8228912z"/>
	<path d="M12.5769758,26.7796764c0.086792,0.1845703,0.3452759,0.1669312,0.407959-0.0271606
		c0.6984863-2.1619263,1.9237061-3.6588135,3.7970572-4.3374023c0.1905518-0.0690308,0.1858521-0.3398438-0.0066528-0.4030762
		c-1.8469229-0.6066284-3.2757559-1.9354858-4.286315-3.9865112c-0.0891724-0.1810303-0.3586426-0.1436768-0.4014893,0.0534668
		c-0.3857422,1.7751465-1.6761475,3.2252197-3.9510498,4.1769409c-0.194458,0.0813599-0.1832886,0.3484497,0.0172119,0.4135742
		C10.257884,23.3527966,11.6511335,24.8114758,12.5769758,26.7796764z"/>
	<path d="M60.9892693,63.5142975c0.2154236,0.4591942,0.8762589,0.4139175,1.0283203-0.0668945
		c0.5576172-1.7255859,1.4970703-2.8066406,2.8720665-3.3041992c0.4892807-0.1775284,0.4796295-0.8755493-0.015625-1.0380859
		c-1.4218712-0.4667969-2.4951134-1.4692383-3.2812462-3.0654297c-0.227932-0.4633904-0.9200668-0.3763618-1.0302734,0.1303711
		c-0.2988281,1.3779297-1.3095703,2.4355469-3.0058594,3.1445313c-0.4782333,0.2005119-0.4495392,0.8801918,0.0439453,1.0400391
		C59.1113396,60.8458405,60.219738,61.8790436,60.9892693,63.5142975z M61.1582146,56.822403
		c0.7568359,1.340332,1.7636719,2.2841797,3.0019493,2.8144531c-1.2197227,0.5874023-2.1259727,1.6411133-2.7011681,3.1416016
		c-0.7685547-1.4375-1.8115234-2.4150391-3.171875-2.9707031C59.7500114,59.0963287,60.7304802,58.0763092,61.1582146,56.822403z"/>
</g>
</svg>
