<?xml version="1.0" encoding="utf-8"?>
<!-- Generator: Adobe Illustrator 22.0.1, SVG Export Plug-In . SVG Version: 6.00 Build 0)  -->
<svg version="1.1" id="Layer_1" xmlns="http://www.w3.org/2000/svg" xmlns:xlink="http://www.w3.org/1999/xlink" x="0px" y="0px"
	 viewBox="0 0 75 75" style="enable-background:new 0 0 75 75;" xml:space="preserve">
<g id="Tooth_Implant">
	<path d="M7.3921804,38.2174988c0.0473633,0.5922852,0.4584961,1.1181641,1.0400391,1.3369141
		c0.3865089,0.1528893,0.1311111,0.0029602-0.0960083,0.0838013c0.1346436,1.2427979,0.2382202,2.8894653,0.2382202,2.8894653
		c0.447998,0.4900513,1.0011597,0.9078979,1.6138306,1.2779541c-0.5559692,1.8134766,0.0592041,3.8826904,1.5618286,5.2043457
		c-1.4272461,2.1743164-1.1245117,5.090332,0.8056641,6.987793c0.0435181,0.0425415,0.1116943,0.1005859,0.1140747,0.0988159
		c0.0004272,0.001709-0.000061,0.003418,0.0003662,0.005127c-0.0037231,0.0447998-0.0591431,0.1604614-0.1056519,0.2573853
		c-1.0439453,2.1821289-0.3813477,4.8525391,1.5678711,6.456543c-0.5021725,3.502655,1.3749599,4.8869171,5.4570322,6.9423828
		c0.6597137,0.3332367,1.0419712,0.3247147,1.6899414-0.046875c6.5670033-3.7617111,4.5607529-6.6951904,4.6795044-6.9977417
		c-0.0001221-0.0004272-0.0001831-0.0008545-0.0003052-0.0012817c-0.0488987-0.1578484-0.0402641-0.3875618-0.0844727-0.6328125
		c3.3431988-3.0782547,1.2656784-6.9168892,1.2563477-7.0195313c0.0131836-0.0307617,0.0820313-0.1049805,0.1455078-0.1733398
		c1.861145-2.0148926,2.0870361-5.0806274,0.6005249-7.3186646c0.0003662-0.0021362,0.0014038-0.0039673,0.001709-0.0061035
		c1.2023926-1.1534424,1.8092041-2.8184204,1.6723633-4.4155273c0.0733032-0.0438843,0.1505737-0.0878296,0.2132568-0.1317139
		l0.4660645-4.2254639l-0.2316895,0.0084839c0.8359261-0.4627037,1.5599976-0.8293724,1.5599976-1.8065186
		c-0.0059433-0.5140457,0.0215511,1.8621521-0.0581055-5.0273438c-0.0112305-1.0068359-1.3085938-1.800293-3.8564453-2.3583984
		c-5.9689465-1.3090019-20.7943306-0.8140392-20.6452026,2.671814C7.0119925,32.6979065,7.3262625,37.2763977,7.3921804,38.2174988z
		 M27.068634,46.9311829c-0.4708977-0.106926-0.6591759-0.2024727-4.0792847-1.5681763
		c2.1010132-0.3391113,4.0450439-0.9146729,5.574646-1.6744385C28.5386047,44.89151,28.0079651,46.0905457,27.068634,46.9311829z
		 M20.7823181,68.8434753c-0.3722515,0.2134781-0.4005814,0.1932755-0.7426758,0.0214844
		c-5.0682383-2.5509109-5.182786-3.6772537-4.8896494-6.2177734c0.0205078-0.1772461-0.0546875-0.3525391-0.1977539-0.4589844
		c-1.664856-1.2405396-2.2927246-3.3721313-1.5615845-5.1837158c3.1347055,3.6053467,7.0546274,5.7261963,11.6787119,6.2966309
		C25.5798035,65.7599792,22.8944397,67.6333923,20.7823181,68.8434753z M24.9873962,61.5260925
		c-0.175293,0.1435547-0.2319336,0.3876953-0.137207,0.5942383c0.0166626,0.0365601,0.0167236,0.0963745,0.0254517,0.1407471
		c-7.7258968-1.0891838-11.1266642-6.4938736-11.6392221-6.9962158c-1.5006104-1.4755859-1.7626343-3.8152466-0.7181396-5.5621338
		c3.5354013,3.6322632,8.1295176,5.5490112,13.6787729,5.6940918
		C26.9742718,57.8370285,27.1088791,59.7843056,24.9873962,61.5260925z M26.5254822,54.224823
		c-0.0465698,0.0501709-0.1004028,0.1149292-0.1523438,0.1811523c-5.6442871-0.1099854-10.090332-2.0110474-13.5698252-5.8261719
		c-0.0126953-0.013916-0.0298462-0.0198975-0.0437012-0.0320435c-0.0123291-0.0108643-0.0194702-0.0261841-0.032959-0.0358276
		c-1.3806763-0.9995728-2.0163574-2.7128906-1.6381226-4.2313843c2.6673584,1.2493896,6.3151865,1.6216431,9.8226328,1.3293457
		c5.083559,2.0302582,5.3707943,2.1737862,5.9735107,2.3046875C28.2580261,49.7615662,28.1230774,52.495575,26.5254822,54.224823z
		 M30.2740173,37.4753113c-5.3862534,3.3922539-13.5467415,4.2719421-21.4819336,1.1464844
		C8.5669851,38.537323,8.405364,38.3429871,8.3892508,38.14328c-0.0819702-1.1756592-0.2155151-3.1381836-0.3036499-4.4767456
		c4.0668106,2.3433762,18.5237083,2.1730003,22.4277344-0.2961426l0.0448608,3.6268921
		C30.558197,37.1852722,30.4527283,37.3634949,30.2740173,37.4753113z M11.0293875,30.7697449
		c4.4121418-1.074131,11.7474947-1.2068996,16.3999023-0.1879883c2.494812,0.546875,3.0587769,1.1817017,3.0690918,1.387207
		c-0.000061,0.0041504-0.0022583,0.0075684-0.0021973,0.0117188l0.0001831,0.0135498
		c-0.0627632,0.4901047-1.482502,1.0026474-1.9545898,1.1549683c-4.9286118-1.1482887-13.2917833-0.9728966-17.7818604,0.4140625
		c-2.8504524-0.6856232-2.8102851-1.3868904-2.7627563-1.319397c0-0.0053101-0.0028076-0.0096436-0.0029907-0.0148926
		C7.9962454,32.0254822,8.5421438,31.3756409,11.0293875,30.7697449z"/>
	<path d="M43.3760681,39.7536316c1.2332039,0.5941315,2.8764458,1.1279259,4.1109619,0.5340576
		c3.6000977-0.0465698,7.800354-1.4613037,12.4910889-4.2156982c6.1193542-3.5911636,11.2328873-10.6733589,5.5795898-15.0727539
		c-0.4805298-0.3841553-1.0379028-0.7084961-1.6431274-0.9821777c-0.5514221-1.2513714-1.3264847-2.1810303-2.3532715-2.9190063
		c-0.7784424-5.2485037-5.0068321-8.8160543-8.8862305-9.2240601c-3.9151917-6.2435164-10.5953484-1.2156091-15.076355,4.670166
		c-2.8256836,3.7299805-4.8051758,7.9501953-5.2954102,11.2910156c-0.7749023,5.3798828,3.7700195,10.1547852,6.2114258,12.7192383
		C40.459919,38.6052971,42.1156311,39.1466751,43.3760681,39.7536316z M38.1963806,34.4914246
		c-3.890625-4.1713867-5.2758789-8.3222656-4.0849609-9.4399414c0.3116417-0.293539,0.7751961-0.3499794,1.2050781-0.3300781
		c0.0505371,0.0022583,0.1100464,0.0198975,0.1619873,0.0245972c1.3972397,4.9152851,7.9064369,11.3869705,12.1137695,12.1043091
		C48.8125496,41.9200401,42.5821114,39.1876373,38.1963806,34.4914246z M66.9947205,25.3156433
		c0.0827026,0.9907837-0.2130127,2.1108398-0.8356934,3.302063c-0.4728622-0.4195786-1.3231659,0.6009636-1.3845215-4.0769653
		c-0.0081177-0.6535358,0.0014038-1.5878525-0.3917847-3.1375732
		C66.0454559,22.4621429,66.8841858,23.9557934,66.9947205,25.3156433z M60.4050598,16.3677063
		c-1.1135254-0.6032715-2.3884888-1.0183105-3.7410278-1.218811c-1.7342262-1.4790277-2.2201271-3.749155-3.3982544-6.1721191
		C56.2258415,9.5973101,59.4752846,12.3874626,60.4050598,16.3677063z M38.3951111,13.1486511
		c3.3619728-4.4144764,9.1513481-9.8186712,12.7895508-5.6323242c1.8587379,2.172801,2.0568352,5.0933561,3.9544678,7.4815674
		c-1.6907005-0.1070681-3.3120155-0.1191349-4.6629639-0.7325439c-0.2519531-0.1152344-0.5478516-0.0029297-0.6616211,0.2485352
		c-0.1142578,0.2514648-0.0029297,0.5478516,0.2485352,0.6616211c3.1963081,1.4521351,6.9053688-0.1222887,10.762207,2.6225586
		c2.0200844,1.3453693,2.6728783,3.4031067,2.9174805,5.7617188c0.1466026,1.5423889-0.3089142,5.6203861,1.8505859,5.9057617
		c0.0171509,0.0161133,0.0384521,0.0220337,0.0561523,0.0361938c-1.3766479,2.1841431-3.4459229,4.1046753-6.1777344,5.7079468
		c-4.0910645,2.4022827-7.7698975,3.7474976-10.963623,4.0236206c1.9132118-4.3347931-7.5917358-15.2645454-13.1447754-15.5109253
		c-1.0562973-0.0477238-1.692215,0.2876797-2.121582,0.817688C33.5009041,20.8558235,36.1006508,16.1774025,38.3951111,13.1486511z"
		/>
	<path d="M67.2398376,55.0011902L64.2286072,50.14328c-0.1445313-0.234375-0.453125-0.3085938-0.6879883-0.1616211
		c-0.2348633,0.1455078-0.3071289,0.4536133-0.1616211,0.6879883l3.0112305,4.8579102
		c0.0942383,0.152832,0.2578125,0.2368164,0.425293,0.2368164C67.201767,55.7643738,67.4478683,55.3362732,67.2398376,55.0011902z"
		/>
	<path d="M58.7618103,63.3591003c0.2631836,0,0.4833984-0.2055664,0.4985352-0.4711914l0.5756836-10.0336914
		c0.0161133-0.2758789-0.1948242-0.512207-0.4702148-0.527832c-0.2758789-0.0166016-0.512207,0.1943359-0.527832,0.4702148
		l-0.5756836,10.0336914c-0.0161133,0.2758789,0.1948242,0.512207,0.4702148,0.527832
		C58.7422791,63.3586121,58.7520447,63.3591003,58.7618103,63.3591003z"/>
	<path d="M52.6392517,57.1569519l3.5566406-5.2529297c0.1547852-0.2285156,0.0947266-0.5395508-0.1337891-0.6943359
		c-0.2270508-0.1533203-0.5390625-0.0947266-0.6943359,0.1337891l-3.5566406,5.2529297
		c-0.1547852,0.2285156-0.0947266,0.5395508,0.1337891,0.6943359
		C52.1735802,57.4453506,52.4841805,57.3856392,52.6392517,57.1569519z"/>
</g>
</svg>
